HIERARCHY
ROOT Hips
{
 OFFSET 0.000000 0.000000 0.000000
 CHANNELS 6 Xposition Yposition Zposition Yrotation Xrotation Zrotation
 JOINT Chest
 {
  OFFSET 0.000000 9.585900 0.002600
  CHANNELS 3 Yrotation Xrotation Zrotation
  JOINT Chest2
  {
   OFFSET 0.000000 9.601200 -0.005300
   CHANNELS 3 Yrotation Xrotation Zrotation
   JOINT Chest3
   {
    OFFSET 0.000000 9.561800 0.000000
    CHANNELS 3 Yrotation Xrotation Zrotation
    JOINT Chest4
    {
     OFFSET 0.000000 9.552100 0.000000
     CHANNELS 3 Yrotation Xrotation Zrotation
     JOINT Neck
     {
      OFFSET 0.000000 14.453000 0.000000
      CHANNELS 3 Yrotation Xrotation Zrotation
      JOINT Head
      {
       OFFSET 0.000000 8.936500 -0.011300
       CHANNELS 3 Yrotation Xrotation Zrotation
       End Site
       {
        OFFSET 0.000000 17.073600 -0.006000
       }
      }
     }
     JOINT RightCollar
     {
      OFFSET -2.921100 9.558500 0.000000
      CHANNELS 3 Yrotation Xrotation Zrotation
      JOINT RightShoulder
      {
       OFFSET -13.519700 0.000000 0.000000
       CHANNELS 3 Yrotation Xrotation Zrotation
       JOINT RightElbow
       {
        OFFSET 0.000000 -29.696600 0.000000
        CHANNELS 3 Yrotation Xrotation Zrotation
        JOINT RightWrist
        {
         OFFSET 0.000000 -24.004700 0.000000
         CHANNELS 3 Yrotation Xrotation Zrotation
         End Site
         {
          OFFSET 0.000000 -17.728500 0.000000
         }
        }
       }
      }
     }
     JOINT LeftCollar
     {
      OFFSET 2.921100 9.558500 0.000000
      CHANNELS 3 Yrotation Xrotation Zrotation
      JOINT LeftShoulder
      {
       OFFSET 13.519700 0.000000 0.000000
       CHANNELS 3 Yrotation Xrotation Zrotation
       JOINT LeftElbow
       {
        OFFSET 0.000000 -29.696600 0.000000
        CHANNELS 3 Yrotation Xrotation Zrotation
        JOINT LeftWrist
        {
         OFFSET 0.000000 -24.004700 0.000000
         CHANNELS 3 Yrotation Xrotation Zrotation
         End Site
         {
          OFFSET 0.000000 -17.728500 0.000000
         }
        }
       }
      }
     }
    }
   }
  }
 }
 JOINT RightHip
 {
  OFFSET -7.771700 -0.012900 -0.001300
  CHANNELS 3 Yrotation Xrotation Zrotation
  JOINT RightKnee
  {
   OFFSET 0.000000 -40.869800 0.001200
   CHANNELS 3 Yrotation Xrotation Zrotation
   JOINT RightAnkle
   {
    OFFSET 0.000000 -39.717900 0.002100
    CHANNELS 3 Yrotation Xrotation Zrotation
    JOINT RightToe
    {
     OFFSET 0.000000 -4.965400 11.033500
     CHANNELS 3 Yrotation Xrotation Zrotation
     End Site
     {
      OFFSET 0.000000 -1.423100 5.872300
     }
    }
   }
  }
 }
 JOINT LeftHip
 {
  OFFSET 7.771700 -0.012900 -0.001300
  CHANNELS 3 Yrotation Xrotation Zrotation
  JOINT LeftKnee
  {
   OFFSET 0.000000 -40.869800 0.001200
   CHANNELS 3 Yrotation Xrotation Zrotation
   JOINT LeftAnkle
   {
    OFFSET 0.000000 -39.717900 0.002100
    CHANNELS 3 Yrotation Xrotation Zrotation
    JOINT LeftToe
    {
     OFFSET 0.000000 -4.965400 11.033500
     CHANNELS 3 Yrotation Xrotation Zrotation
     End Site
     {
      OFFSET 0.000000 -1.423100 5.872300
     }
    }
   }
  }
 }
}
MOTION
Frames: 16
Frame Time: 0.008333
-98.456806 48.970872 21.245847 -179.336558 -32.087554 -4.229163 -0.789095 19.396606 3.367859 -0.163485 2.350152 0.414458 -0.260016 3.866068 0.678609 -0.798189 16.704863 2.854503 5.214967 17.300864 2.423700 8.822762 -3.650618 2.682093 -2.444169 -1.512519 -4.395243 -0.072356 -9.379032 -12.290515 -50.792163 -53.942551 97.718359 3.762008 2.367925 -13.981097 0.368950 -2.339014 2.324030 -7.023858 -5.240941 10.050650 81.151543 -67.633452 -117.112923 5.562663 2.498461 10.186800 7.839940 -53.387301 -5.287459 -177.431231 82.358326 -166.332951 -27.248362 -8.527755 0.634422 0.006499 0.049900 -0.862780 -12.423486 -54.320053 17.159156 -68.988607 63.956857 -75.953823 31.002181 7.684894 17.535390 0.007098 -0.003691 0.066635
-98.454534 48.968524 21.224002 -179.451360 -32.078605 -4.205939 -0.747744 19.374147 3.379116 -0.158841 2.349803 0.414408 -0.252322 3.865485 0.678699 -0.753608 16.714696 2.870112 5.095861 17.172542 2.409342 8.629580 -3.872350 2.702424 -2.416223 -1.446445 -4.396816 0.287752 -9.515439 -12.309312 -50.285933 -53.739623 97.463721 3.793300 2.491780 -13.581402 0.389220 -2.325702 2.339548 -7.357832 -5.236485 10.160641 81.600763 -67.912461 -117.795129 5.513856 2.344356 10.257748 7.687873 -53.367795 -5.424504 -175.133959 82.263950 -163.968525 -27.415619 -8.516391 0.731582 0.029072 -0.049756 -0.820763 -12.412798 -54.317228 17.252681 -69.052187 63.951330 -76.031890 30.998087 7.647396 17.544766 0.016469 0.007947 0.029388
-98.458920 48.966007 21.198797 -179.543304 -32.077744 -4.173608 -0.730322 19.354593 3.365316 -0.155067 2.348853 0.413659 -0.246131 3.864072 0.677552 -0.748051 16.697287 2.871151 5.006968 17.078044 2.381036 8.442436 -4.080958 2.693261 -2.359660 -1.349669 -4.396143 0.670396 -9.641474 -12.320957 -49.791326 -53.510260 97.202888 3.812843 2.589895 -13.189349 0.440920 -2.279794 2.358923 -7.670141 -5.239589 10.292550 82.038742 -68.161759 -118.455580 5.469705 2.207608 10.388228 7.531612 -53.333042 -5.627856 -172.922357 82.155125 -161.702867 -27.566884 -8.465623 0.803600 0.017740 -0.161829 -0.762748 -12.367031 -54.319563 17.287512 -69.140326 63.944843 -76.121370 30.990817 7.618390 17.547136 0.018921 0.012315 0.007383
-98.467285 48.962371 21.171612 -179.587651 -32.076155 -4.152863 -0.752768 19.335331 3.336168 -0.152225 2.347051 0.412350 -0.217324 3.873349 0.683009 -0.755073 16.680655 2.859610 4.902005 16.971734 2.344751 8.262536 -4.278865 2.656841 -2.333418 -1.265448 -4.385423 1.082154 -9.765455 -12.327659 -49.307023 -53.268124 96.937620 3.829721 2.655920 -12.819219 0.473547 -2.248539 2.374518 -7.976809 -5.246290 10.456575 82.453794 -68.380097 -119.071604 5.427898 2.094162 10.562052 7.324128 -53.303864 -5.852551 -170.736351 82.019311 -159.479189 -27.698266 -8.384368 0.846602 0.003439 -0.282064 -0.694942 -12.337142 -54.323545 17.292616 -69.234894 63.937967 -76.212782 30.970920 7.580396 17.553275 0.050564 0.025506 -0.018639
-98.474519 48.957888 21.142660 -179.634147 -32.078578 -4.138828 -0.764143 19.322249 3.315694 -0.150195 2.343861 0.410384 -0.227474 3.862466 0.676480 -0.728995 16.678568 2.851852 4.799512 16.871762 2.296115 8.091218 -4.464319 2.597309 -2.308702 -1.187636 -4.371441 1.507043 -9.883437 -12.334951 -48.830768 -53.025848 96.670000 3.852066 2.694900 -12.476341 0.515155 -2.211181 2.434325 -8.294157 -5.267379 10.593608 82.801817 -68.561065 -119.597710 5.410573 1.995394 10.794866 7.040615 -53.281407 -6.030080 -168.792054 81.863778 -157.535110 -27.737283 -8.300784 0.856078 -0.004175 -0.394009 -0.626764 -12.305100 -54.322802 17.303172 -69.347159 63.927966 -76.313286 30.958993 7.535906 17.534842 0.062774 0.037646 -0.016295
-98.479179 48.952343 21.113018 -179.701937 -32.081319 -4.121786 -0.752921 19.312558 3.304413 -0.148676 2.339152 0.407576 -0.235939 3.848967 0.667693 -0.686029 16.691550 2.857490 4.674781 16.760535 2.223738 7.929255 -4.634568 2.517291 -2.337430 -1.096541 -4.401881 1.962286 -10.042156 -12.311044 -48.363838 -52.795826 96.400042 3.873695 2.706436 -12.157435 0.550902 -2.215886 2.514425 -8.633291 -5.270133 10.708026 83.012025 -68.684372 -119.973481 5.467476 1.886391 11.171939 6.685490 -53.270862 -6.138379 -167.243184 81.710524 -156.020375 -27.735584 -8.229735 0.832501 -0.000883 -0.486092 -0.563611 -12.268986 -54.319160 17.324582 -69.459617 63.924190 -76.413326 30.951776 7.484400 17.518190 0.053777 0.046630 -0.005255
-98.481266 48.943680 21.086980 -179.824261 -32.058824 -4.077995 -0.698009 19.279059 3.297002 -0.147304 2.333420 0.404198 -0.233788 3.840026 0.662262 -0.654875 16.694878 2.856781 4.551012 16.658281 2.140038 7.776174 -4.788506 2.415841 -2.332258 -1.059006 -4.406556 2.392996 -10.149066 -12.324147 -47.898902 -52.555687 96.125825 3.857179 2.682551 -11.860789 0.573995 -2.200734 2.534707 -8.976020 -5.278893 10.891516 83.027928 -68.718187 -120.138849 5.593463 1.737604 11.760148 6.325479 -53.300613 -6.197795 -166.109262 81.582356 -154.926316 -27.798086 -8.174923 0.786046 0.006249 -0.547715 -0.512957 -12.192951 -54.348161 17.348159 -69.585688 63.930284 -76.520045 30.921468 7.428363 17.547896 0.083875 0.068322 -0.057992
-98.482157 48.935360 21.060125 -179.900703 -32.038842 -4.049485 -0.683951 19.254670 3.281617 -0.145788 2.327031 0.400647 -0.231322 3.830083 0.656562 -0.654210 16.678195 2.835322 4.462046 16.583728 2.058839 7.630377 -4.925085 2.294459 -2.328870 -0.979613 -4.432328 2.834863 -10.285935 -12.321636 -47.423567 -52.239051 95.856888 3.771446 2.639171 -11.590633 0.636889 -2.195245 2.588904 -9.341773 -5.257934 11.053931 82.876470 -68.648022 -120.095504 5.727388 1.549634 12.515654 5.925291 -53.322121 -6.246384 -165.377294 81.490920 -154.220065 -27.950040 -8.106627 0.718807 0.040094 -0.613864 -0.464157 -12.122588 -54.383016 17.317086 -69.721609 63.958059 -76.617348 30.909577 7.365724 17.535399 0.085676 0.089042 -0.059677
-98.480270 48.926121 21.036090 -179.934622 -31.998987 -4.043697 -0.705562 19.216940 3.267243 -0.120369 2.322083 0.404187 -0.229938 3.824889 0.653713 -0.702928 16.623803 2.783023 4.405245 16.547025 1.987158 7.491976 -5.044739 2.156396 -2.302731 -0.876033 -4.447668 3.251420 -10.416060 -12.329183 -46.942075 -51.811210 95.612076 3.639981 2.596728 -11.362181 0.717202 -2.170299 2.657442 -9.707237 -5.219515 11.221413 82.652109 -68.510962 -119.928689 5.854911 1.358312 13.339060 5.499674 -53.359809 -6.290779 -164.916475 81.423943 -153.762313 -28.096074 -8.070361 0.624564 0.090044 -0.644700 -0.417637 -12.098292 -54.435673 17.302672 -69.805226 63.983052 -76.671165 30.940546 7.338951 17.541514 0.023025 0.071182 -0.034123
-98.471906 48.919690 21.010681 -179.999771 -31.976370 -4.046094 -0.686345 19.198388 3.282091 -0.099276 2.314175 0.404883 -0.228368 3.819612 0.650885 -0.722388 16.592151 2.748303 4.326708 16.497636 1.896097 7.360344 -5.150769 2.003121 -2.287691 -0.815223 -4.462680 3.619508 -10.517775 -12.355332 -46.466378 -51.306998 95.397888 3.499006 2.554799 -11.190714 0.785512 -2.222713 2.721288 -10.078726 -5.118015 11.374120 82.423528 -68.364526 -119.711541 6.006867 1.203222 14.136834 5.075768 -53.377134 -6.290533 -164.479633 81.376599 -153.311759 -28.202337 -8.032262 0.507559 0.149275 -0.668993 -0.374450 -12.062652 -54.475251 17.301545 -69.986412 64.011760 -76.796216 30.964597 7.275176 17.540857 0.006775 0.081782 -0.063901
-98.463538 48.912830 20.989205 179.914581 -31.932469 -4.027725 -0.628981 19.154228 3.300423 -0.124339 2.309871 0.396677 -0.225220 3.808885 0.645010 -0.690505 16.590243 2.744970 4.225331 16.432097 1.774942 7.234373 -5.244456 1.836057 -2.291791 -0.793018 -4.498041 3.930830 -10.595179 -12.388120 -46.009988 -50.786127 95.221786 3.350593 2.508265 -11.092112 0.813905 -2.265466 2.745941 -10.420465 -5.033556 11.544815 82.199226 -68.244166 -119.453298 6.191686 1.106224 14.825374 4.691339 -53.408976 -6.314878 -163.882427 81.338109 -152.686515 -28.310059 -7.993039 0.391358 0.197866 -0.681251 -0.344337 -12.008561 -54.537915 17.300566 -70.138974 64.039107 -76.901407 30.988073 7.230915 17.545617 -0.011246 0.080529 -0.090071
-98.458014 48.905606 20.971826 179.867815 -31.862437 -4.007944 -0.610560 19.086244 3.297071 -0.139742 2.306933 0.389735 -0.221923 3.798765 0.639002 -0.668119 16.586740 2.741801 4.130816 16.373498 1.646856 7.116658 -5.325687 1.655569 -2.289671 -0.783472 -4.536706 4.179010 -10.646456 -12.424852 -45.591104 -50.295730 95.097053 3.194897 2.447776 -11.084163 0.827646 -2.265666 2.761782 -10.718669 -4.976332 11.718980 81.971718 -68.156313 -119.161947 6.368449 1.064505 15.332536 4.339567 -53.451166 -6.401279 -162.989609 81.293653 -151.743260 -28.442892 -7.946814 0.289339 0.243255 -0.687698 -0.321490 -11.974931 -54.623765 17.287921 -70.197901 64.064988 -76.933779 31.001765 7.230070 17.591280 -0.055081 0.052105 -0.099234
-98.446881 48.902060 20.953379 179.799945 -31.808975 -4.010542 -0.567743 19.043791 3.329603 -0.137994 2.298972 0.385510 -0.219270 3.786232 0.632316 -0.675891 16.541022 2.688111 4.072855 16.360201 1.559139 7.010284 -5.396695 1.461293 -2.265366 -0.743317 -4.538798 4.373917 -10.671363 -12.462946 -45.228027 -49.863228 95.029675 3.061772 2.362812 -11.160018 0.865426 -2.267610 2.823218 -10.971968 -4.869099 11.871909 81.786917 -68.093157 -118.911944 6.484719 1.079575 15.610267 3.997569 -53.464290 -6.467097 -161.785115 81.235913 -150.462318 -28.625153 -7.887125 0.183795 0.323548 -0.700953 -0.282927 -11.982171 -54.677655 17.356413 -70.324777 64.071281 -77.032655 31.005656 7.167569 17.562909 -0.071188 0.070780 -0.084616
-98.445764 48.902342 20.931294 179.753899 -31.783446 -3.968462 -0.562371 19.032224 3.302603 -0.136296 2.291578 0.381705 -0.216438 3.774518 0.626058 -0.666281 16.521317 2.664092 3.998616 16.325564 1.435058 6.916931 -5.457366 1.255672 -2.250602 -0.747698 -4.569463 4.532208 -10.665322 -12.499783 -44.934380 -49.518107 95.018457 2.983299 2.253527 -11.286525 0.890649 -2.294490 2.849080 -11.148411 -4.761532 12.030017 81.709912 -68.063307 -118.784281 6.541782 1.167730 15.653871 3.704129 -53.428376 -6.661501 -160.415051 81.159408 -149.003393 -28.703579 -7.842788 0.115459 0.273877 -0.709070 -0.297150 -11.898368 -54.725832 17.273560 -70.458038 64.106835 -77.118965 31.006312 7.153291 17.541320 -0.070671 0.047188 -0.080464
-98.447796 48.902075 20.913107 179.678192 -31.738058 -3.898522 -0.528985 19.000185 3.263862 -0.153851 2.292147 0.367301 -0.194681 3.755276 0.629955 -0.655586 16.511479 2.657674 3.920782 16.285552 1.289920 6.837240 -5.505949 1.041797 -2.235473 -0.778250 -4.615413 4.665085 -10.626160 -12.531994 -44.709129 -49.297341 95.048719 2.948221 2.125573 -11.443448 0.915779 -2.320899 2.858088 -11.240889 -4.669943 12.192209 81.730263 -68.079368 -118.771233 6.555016 1.302886 15.489000 3.436939 -53.402569 -6.906838 -158.883512 81.054618 -147.384267 -28.800853 -7.811939 0.030818 0.246035 -0.712086 -0.289333 -11.786654 -54.798612 17.159646 -70.625819 64.157432 -77.228741 31.023507 7.105381 17.509163 -0.074984 0.045675 -0.092463
-98.449792 48.904941 20.892558 179.648844 -31.713994 -3.860416 -0.534687 18.991363 3.226527 -0.151662 2.284965 0.362886 -0.192508 3.742536 0.624627 -0.650889 16.486598 2.627673 3.865381 16.268265 1.168634 6.770466 -5.545095 0.820984 -2.214415 -0.771428 -4.606952 4.797530 -10.583375 -12.593076 -44.543539 -49.203330 95.095091 2.935815 1.985820 -11.629572 0.953932 -2.320337 2.895922 -11.248533 -4.596771 12.356525 81.821421 -68.130592 -118.855937 6.504239 1.452516 15.150778 3.107443 -53.345404 -7.144513 -157.205288 80.914394 -145.625542 -28.892730 -7.771087 -0.055398 0.214788 -0.732985 -0.271709 -11.732135 -54.834479 17.095153 -70.733211 64.177728 -77.308143 31.009366 7.077396 17.506155 -0.052492 0.045321 -0.115567
